<?xml version="1.0" encoding="utf-8"?>
<!-- Generator: Adobe Illustrator 20.0.0, SVG Export Plug-In . SVG Version: 6.00 Build 0)  -->
<svg version="1.1" id="Layer_1" xmlns="http://www.w3.org/2000/svg" xmlns:xlink="http://www.w3.org/1999/xlink" x="0px" y="0px"
	 width="350px" height="150px" viewBox="0 0 350 150" style="enable-background:new 0 0 350 150;" xml:space="preserve">
<style type="text/css">
	.st0{fill:#026AC2;}
</style>
<g>
	<g>
		<g>
			<circle class="st0" cx="187" cy="107.9" r="5.8"/>
		</g>
		<g>
			<circle class="st0" cx="152.8" cy="107.9" r="5.8"/>
		</g>
		<g>
			<g>
				<path class="st0" d="M198.3,48.3L198.3,48.3h-51.9l-2.1-10.7c-0.3-2.7-2.4-4.9-4.9-4.9h-10.7c-2.7,0-4.9,2.4-4.9,5.8
					c0,3.1,2.1,5.8,4.9,5.8h5.5l6.7,33.6l3.1,15l0,0v0.6l0,0c0.6,2.4,2.1,4.3,4.3,4.3h41.2c7,0,7.6-11.9,7.6-11.9h-43.7l-1.2-7h42.5
					c2.1,0,3.7-1.5,4.3-4l0,0l0,0l0,0l4.6-18.9c0-0.3,0-0.3,0-0.6l0,0l0,0c0-0.3,0-0.6,0-0.9C204.1,50.8,201.7,48.3,198.3,48.3z
					 M190.1,67.3h-39.7l-1.5-7.3h42.8L190.1,67.3z"/>
			</g>
		</g>
	</g>
</g>
</svg>
